# xmcd
#
# Track frame offsets:
#	150
#	11867
#	23582
#	37565
#	52062
#	62882
#	73320
#	87085
#	98955
#	114232
#	125022
#	134715
#
# Disc length: 1943 seconds
#
# Revision: 0
# Processed by: cddbd v1.4PL0 Copyright (c) Steve Scherf et al.
# Submitted via: audiograbber 1.82.02
#
DISCID=a607950c
DTITLE=Tennessee Ernie Ford - Sixteen Tons
DYEAR=1995
DGENRE=Country
TTITLE0=Sixteen Tons
TTITLE1=Shot-Gun Boogie
TTITLE2=Bright Lights And Blonde-Haired Women
TTITLE3=The Cry Of The Wild Goose
TTITLE4=Milk 'Em In The Mornin' Blues
TTITLE5=Catfish Boogie
TTITLE6=Mule Train
TTITLE7=Smoky Mountain Boogie
TTITLE8=Philadelphia Lawyer
TTITLE9=Country Junction
TTITLE10=Anticipation Blues
TTITLE11=Blackberry Boogie
EXTD=
EXTT0=
EXTT1=
EXTT2=
EXTT3=
EXTT4=
EXTT5=
EXTT6=
EXTT7=
EXTT8=
EXTT9=
EXTT10=
EXTT11=
PLAYORDER=
